<?xml version="1.0" encoding="utf-8"?>
<!-- Generator: Adobe Illustrator 25.0.1, SVG Export Plug-In . SVG Version: 6.00 Build 0)  -->
<svg version="1.1"
	 id="Layer_1" text-rendering="geometricPrecision" shape-rendering="geometricPrecision" image-rendering="optimizeQuality"
	 xmlns="http://www.w3.org/2000/svg" xmlns:xlink="http://www.w3.org/1999/xlink" x="0px" y="0px" viewBox="0 0 8192 8192"
	 style="enable-background:new 0 0 8192 8192;" xml:space="preserve">
<style type="text/css">
	.st0{fill-rule:evenodd;clip-rule:evenodd;fill:#C71610;}
	.st1{fill:#FFFFFF;}
</style>
<circle class="st0" cx="4096" cy="4096" r="4096"/>
<path class="st1" d="M2589.6,5724.7h3260.7c72.3,0,131.6-59.7,131.6-132.8l-3.2-1048.5c-0.3-71.4-10.3-108.4-36.1-175.2l-514.2-1754
	c-23.2-60.8-53.3-118.2-118.2-118.2H4916v420.4h186.4L5566.7,4462l0,0h-685.4l-312.9,421.6h-694.3L3558.7,4462h-690.6l483.8-1545.5
	H3524v-420.7h-371.4c-65.1,0-94.1,57.9-118.2,118.2L2491,4390.3c-26.1,65.4-28.7,102.7-29,173.8l-4,1027.8
	C2458,5665,2517.4,5724.7,2589.6,5724.7L2589.6,5724.7L2589.6,5724.7z M3970.5,2214.7h499.3V3289h401.5l-650.7,745.9L3568.7,3289
	h401.5V2214.7H3970.5L3970.5,2214.7z"/>
</svg>
