<svg id="Layer_1" data-name="Layer 1" xmlns="http://www.w3.org/2000/svg" viewBox="0 0 252 180"><defs><style>.cls-1{fill:#ffb71b;}.cls-2,.cls-3{fill:#002856;}.cls-2{stroke:#002856;stroke-miterlimit:10;stroke-width:0.75px;}</style></defs><path class="cls-1" d="M199.41,28.31H172.92L152.43,83.22,131.8,28.31H105.31l-17.49,103,25.89,7.39L123.34,72l19.13,49.14,20.68-5.09a3.08,3.08,0,0,1,.27-.24l18-43.81,4.39,29.36a7.67,7.67,0,0,1,7.64.45l18.42-.35Z"/><path class="cls-2" d="M235.14,86.56l-1.61-1.21-14.89,19.74a2.49,2.49,0,0,0-1.33-.18,2.59,2.59,0,0,0-2.09,1.9l-23.81.45a2.54,2.54,0,0,0-4.76,1.12l-16.53,11a2.5,2.5,0,0,0-3.69,1.46l-26.71,6.58a2.56,2.56,0,0,0-4.79,1.54l-21.41,8.91a2.56,2.56,0,0,0-2.09-.62,2.59,2.59,0,0,0-2.11,2l-6.88,1.36.79,1.91,6.43-1.28a2.56,2.56,0,0,0,4.73-1.5l21.52-9a2.56,2.56,0,0,0,4-1.3l26.69-6.57a2.58,2.58,0,0,0,4.81-1.67,2,2,0,0,0-.08-.22l16-10.62a2.53,2.53,0,0,0,2.24.79,2.6,2.6,0,0,0,2.06-1.85l23.84-.46a2.59,2.59,0,0,0,4.78-1.75,2.33,2.33,0,0,0-.2-.52Z"/><path class="cls-3" d="M119.74,134.36c-7.63,0-11.52-4.06-16.1-11.18L93.31,107.25c10.84-6.44,18.29-16.6,18.29-31.85C111.6,52.86,95.85,42,66.87,42H52.13C25,42,21.3,42,21.3,57.61V138H52.13V121.15H66.87L74,135c8,15.08,15.08,17.79,26.43,17.79,12,0,21.35-5.25,21.35-14.57v-3.9ZM60.27,97.26H52.13V66.76h8.14c11.35,0,20.16,2,20.16,13.55C80.43,90.82,72.46,97.26,60.27,97.26Z"/><polygon class="cls-3" points="226.85 90.07 234.73 85.18 233.05 94.3 235.25 95.81 238.14 80.19 224.64 88.56 226.85 90.07"/></svg>