<svg id="Layer_1" data-name="Layer 1" xmlns="http://www.w3.org/2000/svg" viewBox="0 0 252 180"><defs><style>.cls-1{fill:#ffb71b;}.cls-2,.cls-3{fill:#fff;}.cls-2{stroke:#fff;stroke-miterlimit:10;stroke-width:0.75px;}</style></defs><path class="cls-1" d="M210.31,15.19h-26.5L163.32,70.1,142.69,15.19H116.2l-17.49,103,25.9,7.39,9.62-66.67L153.36,108,174,103c.09-.09.18-.16.27-.24l18-43.81,4.39,29.35a7.74,7.74,0,0,1,7.65.46l18.41-.35Z"/><path class="cls-2" d="M246,73.44l-1.62-1.22L229.54,92a2.54,2.54,0,0,0-1.34-.18,2.61,2.61,0,0,0-2.09,1.89l-23.8.46a2.61,2.61,0,0,0-2.65-1.27,2.56,2.56,0,0,0-2.12,2.39l-16.53,11a2.53,2.53,0,0,0-1.65-.33,2.57,2.57,0,0,0-2,1.79l-26.71,6.58a2.56,2.56,0,0,0-4.79,1.54l-21.41,8.91a2.56,2.56,0,0,0-2.09-.62,2.6,2.6,0,0,0-2.11,2l-6.88,1.36.79,1.9,6.43-1.27a2.56,2.56,0,0,0,4.73-1.51l21.53-9a2.55,2.55,0,0,0,4-1.3l26.7-6.57a2.56,2.56,0,0,0,2.65,1.3,2.59,2.59,0,0,0,2.15-3,2,2,0,0,0-.08-.22l16-10.62a2.56,2.56,0,0,0,2.24.79,2.6,2.6,0,0,0,2.06-1.85l23.85-.46a2.59,2.59,0,0,0,4.77-1.75,2.92,2.92,0,0,0-.19-.52Z"/><path class="cls-3" d="M130.63,121.24c-7.63,0-11.52-4.07-16.1-11.18L104.2,94.13c10.84-6.44,18.3-16.6,18.3-31.85,0-22.54-15.76-33.38-44.73-33.38H63c-27.11,0-30.83,0-30.83,15.59v80.4H63V108H77.77l7.11,13.9c8,15.08,15.08,17.79,26.43,17.79,12,0,21.35-5.25,21.35-14.57v-3.9ZM71.16,84.13H63V53.64h8.14c11.35,0,20.16,2,20.16,13.55C91.32,77.7,83.36,84.13,71.16,84.13Z"/><polygon class="cls-3" points="237.74 76.95 245.63 72.06 243.94 81.18 246.14 82.69 249.03 67.07 235.53 75.44 237.74 76.95"/></svg>