<?xml version="1.0" encoding="utf-8"?>
<!-- Generator: Adobe Illustrator 25.0.1, SVG Export Plug-In . SVG Version: 6.00 Build 0)  -->
<svg version="1.1" id="Layer_1" xmlns="http://www.w3.org/2000/svg" xmlns:xlink="http://www.w3.org/1999/xlink" x="0px" y="0px"
	 viewBox="0 0 228 228" style="enable-background:new 0 0 228 228;" xml:space="preserve">
<style type="text/css">
	.st0{fill:#FFB71B;}
	.st1{fill:#002856;stroke:#002856;stroke-width:0.75;stroke-miterlimit:10;}
	.st2{fill:#002856;}
</style>
<path class="st0" d="M185.4,52.3h-26.5l-20.5,54.9l-20.6-54.9H91.3l-17.5,103l25.9,7.4l9.6-66.7l19.1,49.1l20.7-5.1
	c0.1-0.1,0.2-0.2,0.3-0.2l18-43.8l4.4,29.4c2.4-1.2,5.4-1.1,7.6,0.4l18.4-0.3L185.4,52.3z"/>
<path class="st1" d="M221.1,110.6l-1.6-1.2l-14.9,19.7c-0.4-0.2-0.9-0.2-1.3-0.2c-1,0.2-1.8,0.9-2.1,1.9l-23.8,0.4
	c-0.7-1.2-2.2-1.7-3.5-1c-0.8,0.4-1.3,1.2-1.3,2.1l-16.5,11c-1.2-0.7-2.7-0.3-3.4,0.9c-0.1,0.2-0.2,0.4-0.3,0.6l-26.7,6.6
	c-0.7-1.2-2.2-1.7-3.5-1c-0.9,0.5-1.5,1.5-1.3,2.6l-21.4,8.9c-0.6-0.5-1.3-0.7-2.1-0.6c-1,0.2-1.9,1-2.1,2l-6.9,1.4l0.8,1.9l6.4-1.3
	c0.7,1.2,2.3,1.6,3.5,0.8c0.8-0.5,1.3-1.4,1.2-2.3l21.5-9c1.1,0.9,2.7,0.6,3.6-0.5c0.2-0.2,0.3-0.5,0.4-0.8l26.7-6.6
	c0.7,1.3,2.2,1.7,3.5,1c1-0.5,1.5-1.6,1.3-2.7c0-0.1,0-0.1-0.1-0.2l16-10.6c0.6,0.6,1.4,0.9,2.2,0.8c1-0.2,1.8-0.9,2.1-1.8l23.8-0.5
	c0.7,1.2,2.3,1.6,3.6,0.9c0.9-0.5,1.4-1.6,1.2-2.6c0-0.2-0.1-0.4-0.2-0.5L221.1,110.6z"/>
<path class="st2" d="M105.7,158.4c-7.6,0-11.5-4.1-16.1-11.2l-10.3-15.9c10.8-6.4,18.3-16.6,18.3-31.8C97.6,76.9,81.8,66,52.9,66
	H38.1C11,66,7.3,66,7.3,81.6V162h30.8v-16.9h14.7L60,159c8,15.1,15.1,17.8,26.4,17.8c12,0,21.3-5.2,21.3-14.6v-3.9L105.7,158.4z
	 M46.3,121.3h-8.1V90.8h8.1c11.4,0,20.2,2,20.2,13.6C66.4,114.8,58.5,121.3,46.3,121.3z"/>
<polygon class="st2" points="212.9,114.1 220.7,109.2 219.1,118.3 221.2,119.8 224.1,104.2 210.6,112.6 "/>
</svg>
