<svg id="Layer_1" data-name="Layer 1" xmlns="http://www.w3.org/2000/svg" viewBox="0 0 288 216"><defs><style>.cls-1,.cls-5{fill:#002856;}.cls-2{fill:#fff;}.cls-3{fill:none;stroke-width:2px;}.cls-3,.cls-5{stroke:#002856;stroke-miterlimit:10;}.cls-4{fill:#ffb71b;}.cls-5{stroke-width:0.75px;}</style></defs><path class="cls-1" d="M55.83,107.35l4.52,7c2,3.11,3.71,4.89,7,4.89h.89v1.7c0,4.07-4.07,6.37-9.33,6.37-5,0-8.08-1.18-11.56-7.78l-3.11-6.07H37.83v13.11H24.35V85.65c0-6.82,1.63-6.82,13.48-6.82h6.45c12.67,0,19.55,4.74,19.55,14.6A15.34,15.34,0,0,1,55.83,107.35ZM41.39,89.65H37.83V103h3.56c5.33,0,8.81-2.81,8.81-7.41C50.2,90.54,46.35,89.65,41.39,89.65Z"/><path class="cls-1" d="M76.58,86.54C71,86.54,69,84.24,69,79.8s2-6.89,7.63-6.89c5.41,0,7.63,2.44,7.63,6.89S82,86.54,76.58,86.54Zm-6.67,40V96.76c0-6.82,1.56-6.82,12.74-6.82v36.6Z"/><path class="cls-1" d="M119.32,118.76c0,6.6-6.44,8.52-14.52,8.52-12.15,0-19-7.41-19-20.15,0-10.74,7.63-17.63,19.71-17.63,8.74,0,15.19,3.63,15.19,10.37,0,4.52-3.41,6.08-7.56,6.08h-3.33v-1.41c0-4-1.93-5.48-4.6-5.48-3.7,0-6.22,3.11-6.22,8.07,0,7.78,4.52,10.52,11.34,10.52a24.69,24.69,0,0,0,9-1.55Z"/><path class="cls-1" d="M135,105.21l7.11-.6v-.22c-.29-5.26-4.59-6.15-8.74-6.15a24.05,24.05,0,0,0-9.33,2.22V97.35c0-6.07,8.89-7.85,14.74-7.85,8.44,0,15.41,2.59,16.3,14.82l1.26,17.78c.37,4.74-5.41,4.74-13,4.74l-.29-5a15.54,15.54,0,0,1-11.86,5.48c-7.18,0-10.59-5.55-10.59-11C120.66,110.24,124.44,106.09,135,105.21Zm2.07,13.55c3.19,0,5.26-3.63,5.41-7.26l-5.26.67a3.3,3.3,0,0,0-3.11,3.33A3,3,0,0,0,137.1,118.76Z"/><path class="cls-1" d="M160,126.54V96.76c0-6.82,1.55-6.82,12.74-6.82V97.2c2.81-5.11,6.37-7.7,10.07-7.7,3.41,0,4.3,2.44,3.56,12.37-8.45-1.85-13.63.22-13.63,11.85v12.82Z"/><path class="cls-1" d="M203.41,89.5a12.63,12.63,0,0,1,9.48,3.7V78.83h12.74V120c0,6.82-1.55,6.82-12.74,6.82v-6.3a15.25,15.25,0,0,1-12.81,6.74c-9.34,0-13.41-7.26-13.41-17.33C186.67,98.91,193.33,89.5,203.41,89.5Zm1.85,27.63c4.3,0,7.26-4.37,7.26-10.37,0-3.26-1.26-6.89-5.55-6.89-4.67,0-7.12,4.82-7.12,9.56C199.85,113.43,201.19,117.13,205.26,117.13Z"/><path class="cls-1" d="M247.86,127.28c-11.41,0-19.11-7.85-19.11-19.63,0-11.33,6.89-18.15,19.11-18.15S267,96.32,267,107.65C267,119.43,259.27,127.28,247.86,127.28Zm0-27.63c-4.67,0-5.93,3.18-5.93,8s1.93,9.26,5.93,9.26,5.93-4.45,5.93-9.26S252.53,99.65,247.86,99.65Z"/><path class="cls-2" d="M23.93,162.91l4.49-26.45h6.81l5.29,14.1,5.26-14.1h6.81l4.49,26.45H50.24L48,147.68l-6.25,15.23H39l-5.93-15.23-2.28,15.23Z"/><path class="cls-2" d="M84.64,158.31H74.82l-1.57,4.6H65.91L76,136.46h7.51l10.06,26.45H86.22Zm-1.82-5.22-3.09-8.81-3.08,8.81Z"/><path class="cls-2" d="M125.57,162.91H117l-6.56-10.18v10.18h-6.88V136.46h10.7a10.58,10.58,0,0,1,3.86.65,7.23,7.23,0,0,1,4.33,4.37,9.06,9.06,0,0,1,.54,3.15,7.8,7.8,0,0,1-1.45,4.9,7.35,7.35,0,0,1-4.3,2.54Zm-15.11-14.63h1.29a5,5,0,0,0,3.13-.84,3.25,3.25,0,0,0,0-4.84,5,5,0,0,0-3.13-.84h-1.29Z"/><path class="cls-2" d="M145.53,142.28v20.63h-6.87V142.28H133v-5.82h18.17v5.82Z"/><path class="cls-2" d="M168.12,136.46v26.45h-6.88V136.46Z"/><path class="cls-2" d="M180.67,162.91V136.46h6.88l12.69,16.17V136.46h6.84v26.45h-6.84l-12.69-16.17v16.17Z"/><path class="cls-2" d="M234.69,142.28h-8.18v4.42h7.72v5.82h-7.72v4.56h8.18v5.83H219.64V136.46h15.05Z"/><path class="cls-2" d="M255.94,157.08H267v5.83H244.4l12.52-20.63H246.51v-5.82h21.88Z"/><path class="cls-1" d="M26.67,193.46c-.13.89-.22,1.8-.35,3-.15,1.56-.68,2-1.22,2.31a1.58,1.58,0,0,1-.73.21.75.75,0,0,1-.68-.39l-.23-.41c.61-.37.92-.69,1.08-2.12a35,35,0,0,1,.64-4.6,2.24,2.24,0,0,1,2.31-1.84c.91,0,1.52.37,1.33,1.2l-.08.34A1.67,1.67,0,0,0,28,191a1,1,0,0,0-1.05.87,1.8,1.8,0,0,0,0,.19H28c.55,0,.51.23.24,1.38Z"/><path class="cls-1" d="M30.5,197.14a2.31,2.31,0,0,1-2.28-2.52,2.94,2.94,0,0,1,3.13-3.24,2.1,2.1,0,0,1,2.37,2.24A3.4,3.4,0,0,1,30.5,197.14Zm.65-4.27c-.84,0-1.11.86-1.11,1.81,0,.58.18.93.63.93.79,0,1.23-1.11,1.23-1.88C31.9,193.13,31.6,192.87,31.15,192.87Z"/><path class="cls-1" d="M33.47,197a48.25,48.25,0,0,1,1.07-4.84c.2-.69.74-.74,2-.74-.22.7-.38,1.24-.53,1.87.85-1.75,1.46-1.94,1.89-1.94s.69.5.25,1.92c-1.46-.37-2.54,1.85-2.89,3.61l0,.12Z"/><path class="cls-1" d="M42.86,186.3H47a4.8,4.8,0,0,1,2.06.44,5.44,5.44,0,0,1,2.81,2.88,5.32,5.32,0,0,1,0,4.07,5.37,5.37,0,0,1-1.13,1.71,5.57,5.57,0,0,1-1.68,1.19A5,5,0,0,1,47,197H42.86Zm2.78,8.36h.65a3.49,3.49,0,0,0,1.29-.22,2.81,2.81,0,0,0,1-.63,2.75,2.75,0,0,0,.6-.95,3.59,3.59,0,0,0,0-2.39,2.61,2.61,0,0,0-1.56-1.58,3.28,3.28,0,0,0-1.28-.23h-.65Z"/><path class="cls-1" d="M56.69,186.3V197H53.9V186.3Z"/><path class="cls-1" d="M64.68,189a3.21,3.21,0,0,0-.91-.54,2.35,2.35,0,0,0-.88-.18,1.43,1.43,0,0,0-.88.25.8.8,0,0,0-.34.67.63.63,0,0,0,.17.47,1.3,1.3,0,0,0,.45.32,4,4,0,0,0,.62.24c.24.06.46.13.69.21a4.25,4.25,0,0,1,2,1.22,3,3,0,0,1,.64,2,4,4,0,0,1-.28,1.5,3.3,3.3,0,0,1-.81,1.14,3.73,3.73,0,0,1-1.31.74,5.34,5.34,0,0,1-1.76.26,6.49,6.49,0,0,1-3.77-1.2l1.19-2.25a4.83,4.83,0,0,0,1.24.82A3,3,0,0,0,62,195a1.43,1.43,0,0,0,1-.31,1,1,0,0,0,.33-.71.93.93,0,0,0-.08-.42.89.89,0,0,0-.29-.33,2.25,2.25,0,0,0-.52-.28l-.77-.28c-.36-.11-.71-.24-1.06-.38a3.31,3.31,0,0,1-.93-.55,2.48,2.48,0,0,1-.65-.86,2.94,2.94,0,0,1-.25-1.31,3.94,3.94,0,0,1,.26-1.45,3.43,3.43,0,0,1,.74-1.11,3.3,3.3,0,0,1,1.17-.72,4.44,4.44,0,0,1,1.54-.25,6.61,6.61,0,0,1,1.67.22,7.16,7.16,0,0,1,1.66.65Z"/><path class="cls-1" d="M72,188.66V197H69.2v-8.37H66.9V186.3h7.38v2.36Z"/><path class="cls-1" d="M84.29,197H80.82l-2.66-4.13V197H75.37V186.3h4.34a4.2,4.2,0,0,1,1.57.26,3.05,3.05,0,0,1,1.1.72,2.86,2.86,0,0,1,.65,1.05,3.63,3.63,0,0,1,.22,1.28,3.12,3.12,0,0,1-.59,2,2.93,2.93,0,0,1-1.74,1Zm-6.13-5.94h.53a2,2,0,0,0,1.26-.34,1.15,1.15,0,0,0,.44-1,1.13,1.13,0,0,0-.44-1,2,2,0,0,0-1.26-.34h-.53Z"/><path class="cls-1" d="M88.11,186.3V197H85.32V186.3Z"/><path class="cls-1" d="M97.94,189.88a3,3,0,0,0-2.39-1.18,3,3,0,0,0-1.16.23,2.82,2.82,0,0,0-.92.62,2.66,2.66,0,0,0-.6.93,3,3,0,0,0-.22,1.17,3.06,3.06,0,0,0,.22,1.18,2.79,2.79,0,0,0,1.53,1.56,2.7,2.7,0,0,0,1.14.23,3.22,3.22,0,0,0,2.4-1.14v3.3l-.28.1a7.38,7.38,0,0,1-1.2.34,5.92,5.92,0,0,1-1.1.1,5.64,5.64,0,0,1-3.92-1.6,5.89,5.89,0,0,1-1.24-1.8,5.58,5.58,0,0,1-.47-2.29,5.48,5.48,0,0,1,.46-2.27,5.75,5.75,0,0,1,1.24-1.78,5.86,5.86,0,0,1,1.8-1.16,5.6,5.6,0,0,1,2.15-.42,5.92,5.92,0,0,1,1.26.13,7.8,7.8,0,0,1,1.3.42Z"/><path class="cls-1" d="M103.63,188.66V197h-2.79v-8.37H98.55V186.3h7.37v2.36Z"/><path class="cls-1" d="M119.63,197H111l2.66-2.76c.7-.74,1.25-1.35,1.65-1.86a9.86,9.86,0,0,0,.89-1.29,3.75,3.75,0,0,0,.36-.85,2.58,2.58,0,0,0,.07-.56,1.26,1.26,0,0,0-.08-.47,1.23,1.23,0,0,0-.23-.4,1.1,1.1,0,0,0-.38-.29,1.18,1.18,0,0,0-.52-.1,1.11,1.11,0,0,0-.89.37,1.36,1.36,0,0,0-.32.92,3.65,3.65,0,0,0,0,.46h-3a4.45,4.45,0,0,1,.31-1.71,3.86,3.86,0,0,1,.86-1.33,3.8,3.8,0,0,1,1.32-.85,4.47,4.47,0,0,1,1.67-.3,4.61,4.61,0,0,1,1.65.29,4,4,0,0,1,1.32.79,3.78,3.78,0,0,1,.87,1.22,3.7,3.7,0,0,1,.31,1.53,3.46,3.46,0,0,1-.38,1.63,5.64,5.64,0,0,1-1.2,1.53l-1.78,1.66h3.48Z"/><path class="cls-1" d="M120.41,191.65a7.72,7.72,0,0,1,.33-2.33,5.63,5.63,0,0,1,.94-1.79,4.19,4.19,0,0,1,1.44-1.14,4.33,4.33,0,0,1,3.68,0,4.19,4.19,0,0,1,1.44,1.14,5.83,5.83,0,0,1,.93,1.79,8.36,8.36,0,0,1,0,4.65,5.88,5.88,0,0,1-.93,1.8,4.22,4.22,0,0,1-1.44,1.15,4.43,4.43,0,0,1-3.68,0,4.22,4.22,0,0,1-1.44-1.15,5.69,5.69,0,0,1-.94-1.8A7.65,7.65,0,0,1,120.41,191.65Zm2.76,0a5.75,5.75,0,0,0,.13,1.29,3.42,3.42,0,0,0,.36,1,1.85,1.85,0,0,0,.56.66,1.23,1.23,0,0,0,.74.24,1.26,1.26,0,0,0,.74-.24,1.76,1.76,0,0,0,.56-.66,3.74,3.74,0,0,0,.35-1,6.47,6.47,0,0,0,0-2.58,3.74,3.74,0,0,0-.35-1,1.93,1.93,0,0,0-.56-.66,1.32,1.32,0,0,0-.74-.23,1.3,1.3,0,0,0-.74.23,2,2,0,0,0-.56.66,3.42,3.42,0,0,0-.36,1A5.75,5.75,0,0,0,123.17,191.65Z"/><path class="cls-1" d="M138,192.69h1.29v2.13H138V197h-2.59v-2.21h-5.18V193l4.1-6.73H138Zm-2.59,0v-4.23l-2.47,4.23Z"/><path class="cls-1" d="M151.27,189a3.21,3.21,0,0,0-.91-.54,2.39,2.39,0,0,0-.88-.18,1.43,1.43,0,0,0-.88.25.8.8,0,0,0-.34.67.63.63,0,0,0,.17.47,1.35,1.35,0,0,0,.44.32,4.6,4.6,0,0,0,.63.24l.69.21a4.25,4.25,0,0,1,2,1.22,3,3,0,0,1,.63,2,4,4,0,0,1-.27,1.5,3.3,3.3,0,0,1-.81,1.14,3.73,3.73,0,0,1-1.31.74,5.38,5.38,0,0,1-1.76.26,6.49,6.49,0,0,1-3.77-1.2l1.19-2.25a4.83,4.83,0,0,0,1.24.82,3,3,0,0,0,1.21.27,1.45,1.45,0,0,0,1-.31,1,1,0,0,0,.33-.71,1.08,1.08,0,0,0-.08-.42.89.89,0,0,0-.29-.33,2.25,2.25,0,0,0-.52-.28l-.77-.28c-.36-.11-.72-.24-1.06-.38a3.31,3.31,0,0,1-.93-.55,2.36,2.36,0,0,1-.65-.86,2.94,2.94,0,0,1-.25-1.31,3.94,3.94,0,0,1,.26-1.45,3.16,3.16,0,0,1,1.91-1.83,4.4,4.4,0,0,1,1.54-.25,6.67,6.67,0,0,1,1.67.22,7.16,7.16,0,0,1,1.66.65Z"/><path class="cls-1" d="M162.16,189.88a3,3,0,0,0-2.39-1.18,2.93,2.93,0,0,0-1.16.23,2.82,2.82,0,0,0-.92.62,2.66,2.66,0,0,0-.6.93,3,3,0,0,0-.22,1.17,3.06,3.06,0,0,0,.22,1.18,2.79,2.79,0,0,0,1.53,1.56,2.69,2.69,0,0,0,1.13.23,3.22,3.22,0,0,0,2.41-1.14v3.3l-.29.1a7,7,0,0,1-1.19.34,5.92,5.92,0,0,1-1.1.1,5.64,5.64,0,0,1-3.92-1.6,5.89,5.89,0,0,1-1.24-1.8,5.43,5.43,0,0,1-.47-2.29,5.48,5.48,0,0,1,.46-2.27,5.75,5.75,0,0,1,1.24-1.78,5.86,5.86,0,0,1,1.8-1.16,5.6,5.6,0,0,1,2.15-.42,6,6,0,0,1,1.26.13,7.8,7.8,0,0,1,1.3.42Z"/><path class="cls-1" d="M167,190.44h4V186.3h2.79V197h-2.79V192.6h-4V197h-2.79V186.3H167Z"/><path class="cls-1" d="M175.46,191.66a5.69,5.69,0,0,1,.44-2.23,5.88,5.88,0,0,1,1.23-1.8,5.57,5.57,0,0,1,1.87-1.2,6.88,6.88,0,0,1,4.79,0,5.61,5.61,0,0,1,1.88,1.2,5.7,5.7,0,0,1,1.23,6.26,5.34,5.34,0,0,1-1.23,1.8,5.61,5.61,0,0,1-1.88,1.2,6.88,6.88,0,0,1-4.79,0,5.57,5.57,0,0,1-1.87-1.2,5.54,5.54,0,0,1-1.67-4Zm2.92,0a3,3,0,0,0,1.86,2.74,3,3,0,0,0,1.16.22,3.07,3.07,0,0,0,1.16-.22,2.94,2.94,0,0,0,1-.62,3,3,0,0,0,.67-3.3,3,3,0,0,0-.67-.94,3.11,3.11,0,0,0-1-.62,3.27,3.27,0,0,0-1.16-.22,3.19,3.19,0,0,0-1.16.22,3,3,0,0,0-1,.62,3,3,0,0,0-.66.94A2.86,2.86,0,0,0,178.38,191.66Z"/><path class="cls-1" d="M188.48,191.66a5.69,5.69,0,0,1,.44-2.23,5.88,5.88,0,0,1,1.23-1.8,5.57,5.57,0,0,1,1.87-1.2,6.88,6.88,0,0,1,4.79,0,5.61,5.61,0,0,1,1.88,1.2,5.7,5.7,0,0,1,1.23,6.26,5.34,5.34,0,0,1-1.23,1.8,5.61,5.61,0,0,1-1.88,1.2,6.88,6.88,0,0,1-4.79,0,5.57,5.57,0,0,1-1.87-1.2,5.54,5.54,0,0,1-1.67-4Zm2.92,0a3,3,0,0,0,1.86,2.74,3,3,0,0,0,1.16.22,3,3,0,0,0,1.16-.22,2.94,2.94,0,0,0,1-.62,2.74,2.74,0,0,0,.67-.94,2.9,2.9,0,0,0-.67-3.3,3.11,3.11,0,0,0-1-.62,3.23,3.23,0,0,0-1.16-.22,3.19,3.19,0,0,0-1.16.22,3,3,0,0,0-1,.62,3,3,0,0,0-.66.94A2.86,2.86,0,0,0,191.4,191.66Z"/><path class="cls-1" d="M204.78,186.3v8.36h3.34V197H202V186.3Z"/><path class="cls-1" d="M214.11,186.3h4.16a3.2,3.2,0,0,1,2.25.71,2.66,2.66,0,0,1,.76,2.05,2.69,2.69,0,0,1-.29,1.34,2.42,2.42,0,0,1-.89.91,3.39,3.39,0,0,1,1,.34,2.17,2.17,0,0,1,1.06,1.35,3.34,3.34,0,0,1,.11.91,3.17,3.17,0,0,1-.26,1.34,2.65,2.65,0,0,1-.74,1,3.35,3.35,0,0,1-1.16.6,5.58,5.58,0,0,1-1.54.2h-4.48Zm2.79,4.21h.51c.88,0,1.31-.35,1.31-1s-.43-1-1.31-1h-.51Zm0,4.35h.61a3.12,3.12,0,0,0,1.51-.27,1,1,0,0,0,0-1.73,3.12,3.12,0,0,0-1.51-.27h-.61Z"/><path class="cls-1" d="M223.25,191.66a5.51,5.51,0,0,1,.44-2.23,5.47,5.47,0,0,1,3.09-3,6.88,6.88,0,0,1,4.79,0,5.76,5.76,0,0,1,1.89,1.2,5.88,5.88,0,0,1,1.23,1.8,5.65,5.65,0,0,1-1.23,6.26,5.76,5.76,0,0,1-1.89,1.2,6.88,6.88,0,0,1-4.79,0,5.67,5.67,0,0,1-1.87-1.2,5.58,5.58,0,0,1-1.66-4Zm2.91,0a2.87,2.87,0,0,0,.25,1.18,3,3,0,0,0,.65.94,3,3,0,0,0,2.12.84,3.08,3.08,0,0,0,2.13-.84,3,3,0,0,0,.66-3.3,3,3,0,0,0-.66-.94,3.16,3.16,0,0,0-1-.62,3.19,3.19,0,0,0-1.16-.22,3,3,0,0,0-2.12.84,3.1,3.1,0,0,0-.65.94A2.87,2.87,0,0,0,226.16,191.66Z"/><path class="cls-1" d="M242.91,195.16h-4l-.64,1.87h-3l4.09-10.73h3L246.53,197h-3Zm-.74-2.12-1.25-3.57L239.67,193Z"/><path class="cls-1" d="M256.53,197h-3.47l-2.66-4.13V197h-2.79V186.3H252a4.11,4.11,0,0,1,1.56.26,2.92,2.92,0,0,1,1.76,1.77,3.63,3.63,0,0,1,.22,1.28,3.18,3.18,0,0,1-.59,2,2.93,2.93,0,0,1-1.74,1Zm-6.13-5.94h.52a2,2,0,0,0,1.27-.34,1.17,1.17,0,0,0,.44-1,1.16,1.16,0,0,0-.44-1,2,2,0,0,0-1.27-.34h-.52Z"/><path class="cls-1" d="M257.56,186.3h4.12a4.8,4.8,0,0,1,2.06.44,5.44,5.44,0,0,1,2.81,2.88,5.32,5.32,0,0,1,0,4.07,5.37,5.37,0,0,1-1.13,1.71,5.57,5.57,0,0,1-1.68,1.19,5,5,0,0,1-2.07.44h-4.12Zm2.78,8.36H261a3.49,3.49,0,0,0,1.29-.22,2.81,2.81,0,0,0,1-.63,2.75,2.75,0,0,0,.6-.95,3.59,3.59,0,0,0,0-2.39,2.79,2.79,0,0,0-.6-1,3,3,0,0,0-1-.62,3.28,3.28,0,0,0-1.28-.23h-.65Z"/><line class="cls-3" x1="24.82" y1="175.12" x2="266.51" y2="175.12"/><circle class="cls-1" cx="24.92" cy="175.12" r="1.69"/><circle class="cls-1" cx="265.98" cy="175.12" r="1.69"/><path class="cls-4" d="M181.23,14.68h-12.3l-9.51,25.48-9.57-25.48h-12.3l-8.12,47.8,12,3.43L145.92,35l8.88,22.8,9.6-2.36.12-.11L172.86,35l2,13.62a3.48,3.48,0,0,1,1-.32,3.64,3.64,0,0,1,2.56.53l8.55-.16Z"/><path class="cls-5" d="M197.81,41.71l-.74-.56-6.91,9.17a1.13,1.13,0,0,0-.63-.09,1.21,1.21,0,0,0-1,.88l-11,.21a1.19,1.19,0,0,0-2.22.52l-7.67,5.09a1.25,1.25,0,0,0-.76-.15,1.18,1.18,0,0,0-1,.83l-12.4,3a1.19,1.19,0,0,0-2.22.72l-9.94,4.14a1.16,1.16,0,0,0-1-.29,1.21,1.21,0,0,0-1,.91l-3.19.63.36.88,3-.59a1.19,1.19,0,0,0,2.2-.7l10-4.15a1.17,1.17,0,0,0,.92.23,1.2,1.2,0,0,0,.95-.84L166,58.55a1.2,1.2,0,0,0,1.24.61,1.22,1.22,0,0,0,1-1.38,1,1,0,0,0,0-.1l7.42-4.93a1.18,1.18,0,0,0,2-.49L188.7,52a1.2,1.2,0,0,0,2.21-.81.7.7,0,0,0-.09-.24Z"/><path class="cls-1" d="M144.25,63.9c-3.54,0-5.35-1.89-7.47-5.19L132,51.32a16.32,16.32,0,0,0,8.49-14.79c0-10.46-7.31-15.49-20.76-15.49h-6.84c-12.59,0-14.32,0-14.32,7.23V65.59h14.32V57.77h6.84l3.3,6.45c3.7,7,7,8.25,12.27,8.25,5.59,0,9.91-2.43,9.91-6.76V63.9ZM116.64,46.68h-3.77V32.52h3.77c5.27,0,9.36.95,9.36,6.29C126,43.69,122.3,46.68,116.64,46.68Z"/><polygon class="cls-1" points="193.96 43.34 197.62 41.07 196.84 45.31 197.86 46.01 199.21 38.76 192.94 42.64 193.96 43.34"/></svg>