<svg id="Layer_1" data-name="Layer 1" xmlns="http://www.w3.org/2000/svg" viewBox="0 0 288 216"><defs><style>.cls-1,.cls-4{fill:#002856;}.cls-2{fill:#ffb71b;}.cls-3{fill:none;stroke-width:2px;}.cls-3,.cls-4{stroke:#002856;stroke-miterlimit:10;}.cls-4{stroke-width:0.75px;}</style></defs><path class="cls-1" d="M53.82,107.17l4.52,7c2,3.11,3.7,4.89,7,4.89h.89v1.7c0,4.08-4.08,6.37-9.34,6.37-5,0-8.07-1.18-11.55-7.77l-3.12-6.08H35.82v13.11H22.34V85.46c0-6.82,1.63-6.82,13.48-6.82h6.44c12.67,0,19.56,4.75,19.56,14.6A15.37,15.37,0,0,1,53.82,107.17ZM39.37,89.46H35.82v13.33h3.55c5.34,0,8.82-2.81,8.82-7.4C48.19,90.35,44.34,89.46,39.37,89.46Z"/><path class="cls-1" d="M74.56,86.35c-5.63,0-7.63-2.3-7.63-6.74s2-6.89,7.63-6.89c5.41,0,7.63,2.44,7.63,6.89S80,86.35,74.56,86.35Zm-6.66,40V96.57c0-6.81,1.55-6.81,12.74-6.81v36.59Z"/><path class="cls-1" d="M117.31,118.57c0,6.6-6.45,8.52-14.52,8.52-12.15,0-19-7.4-19-20.15,0-10.74,7.63-17.63,19.71-17.63,8.74,0,15.18,3.63,15.18,10.37,0,4.52-3.41,6.08-7.55,6.08h-3.34v-1.41c0-4-1.92-5.48-4.59-5.48-3.7,0-6.22,3.11-6.22,8.07,0,7.78,4.52,10.52,11.33,10.52a24.71,24.71,0,0,0,9-1.55Z"/><path class="cls-1" d="M133,105l7.11-.6v-.22c-.3-5.26-4.6-6.15-8.74-6.15a24,24,0,0,0-9.34,2.23V97.16c0-6.07,8.89-7.85,14.74-7.85,8.45,0,15.41,2.6,16.3,14.82l1.26,17.78c.37,4.74-5.41,4.74-13,4.74l-.3-5a15.51,15.51,0,0,1-11.85,5.48c-7.19,0-10.6-5.55-10.6-11C118.64,110.05,122.42,105.91,133,105Zm2.07,13.55c3.19,0,5.26-3.63,5.41-7.26l-5.26.67a3.29,3.29,0,0,0-3.11,3.33A3,3,0,0,0,135.09,118.57Z"/><path class="cls-1" d="M158,126.35V96.57c0-6.81,1.56-6.81,12.74-6.81V97c2.82-5.11,6.38-7.71,10.08-7.71,3.41,0,4.3,2.45,3.56,12.37-8.45-1.85-13.64.23-13.64,11.86v12.81Z"/><path class="cls-1" d="M201.4,89.31A12.62,12.62,0,0,1,210.88,93V78.64h12.74v41.19c0,6.82-1.56,6.82-12.74,6.82v-6.3a15.25,15.25,0,0,1-12.82,6.74c-9.33,0-13.41-7.26-13.41-17.33C184.65,98.72,191.32,89.31,201.4,89.31Zm1.85,27.63c4.29,0,7.26-4.37,7.26-10.37,0-3.26-1.26-6.89-5.56-6.89-4.67,0-7.11,4.82-7.11,9.56C197.84,113.24,199.17,116.94,203.25,116.94Z"/><path class="cls-1" d="M245.85,127.09c-11.41,0-19.12-7.85-19.12-19.63,0-11.33,6.89-18.15,19.12-18.15S265,96.13,265,107.46C265,119.24,257.25,127.09,245.85,127.09Zm0-27.63c-4.67,0-5.93,3.19-5.93,8s1.92,9.26,5.93,9.26,5.92-4.44,5.92-9.26S250.51,99.46,245.85,99.46Z"/><path class="cls-2" d="M21.92,162.72l4.49-26.45h6.8l5.3,14.1,5.26-14.1h6.8l4.49,26.45H48.22L45.94,147.5,39.7,162.72H37L31,147.5l-2.28,15.22Z"/><path class="cls-2" d="M82.63,158.12H72.81l-1.58,4.6H63.9L74,136.27h7.5l10.07,26.45H84.21Zm-1.82-5.22-3.09-8.81-3.09,8.81Z"/><path class="cls-2" d="M123.56,162.72H115l-6.56-10.17v10.17h-6.87V136.27h10.7a10.49,10.49,0,0,1,3.85.65,7.38,7.38,0,0,1,2.72,1.77,7.55,7.55,0,0,1,1.62,2.6,9.06,9.06,0,0,1,.54,3.15,7.76,7.76,0,0,1-1.46,4.9,7.3,7.3,0,0,1-4.29,2.54Zm-15.12-14.63h1.3a5,5,0,0,0,3.12-.84,3.23,3.23,0,0,0,0-4.84,5,5,0,0,0-3.12-.84h-1.3Z"/><path class="cls-2" d="M143.52,142.09v20.63h-6.88V142.09H131v-5.82h18.17v5.82Z"/><path class="cls-2" d="M166.1,136.27v26.45h-6.87V136.27Z"/><path class="cls-2" d="M178.66,162.72V136.27h6.87l12.7,16.17V136.27h6.84v26.45h-6.84l-12.7-16.17v16.17Z"/><path class="cls-2" d="M232.67,142.09H224.5v4.42h7.72v5.83H224.5v4.56h8.17v5.82h-15V136.27h15Z"/><path class="cls-2" d="M253.93,156.9H265v5.82H242.39l12.52-20.63H244.49v-5.82h21.89Z"/><path class="cls-2" d="M24.66,193.27c-.13.89-.23,1.81-.35,3-.16,1.55-.69,2-1.22,2.3a1.61,1.61,0,0,1-.73.21.75.75,0,0,1-.68-.39l-.24-.41c.61-.37.93-.69,1.09-2.12a35.21,35.21,0,0,1,.64-4.6,2.23,2.23,0,0,1,2.3-1.84c.92,0,1.53.38,1.34,1.2l-.08.34a1.71,1.71,0,0,0-.73-.16,1,1,0,0,0-1.05.87c0,.07,0,.14,0,.19H26c.55,0,.52.23.25,1.38Z"/><path class="cls-2" d="M28.49,197a2.31,2.31,0,0,1-2.28-2.52,3,3,0,0,1,3.12-3.24,2.1,2.1,0,0,1,2.38,2.24A3.4,3.4,0,0,1,28.49,197Zm.64-4.27c-.83,0-1.1.86-1.1,1.81,0,.59.18.94.63.94.79,0,1.23-1.12,1.23-1.89C29.89,192.94,29.58,192.68,29.13,192.68Z"/><path class="cls-2" d="M31.46,196.84A45.37,45.37,0,0,1,32.53,192c.19-.69.73-.75,1.94-.75-.21.7-.37,1.24-.53,1.87.86-1.75,1.47-1.94,1.9-1.94s.69.5.25,1.92c-1.46-.37-2.54,1.85-2.89,3.62l0,.11Z"/><path class="cls-1" d="M40.84,186.11H45a5,5,0,0,1,2.06.44,5.65,5.65,0,0,1,1.67,1.17,5.57,5.57,0,0,1,1.14,1.71,5.26,5.26,0,0,1,0,4.07,5.49,5.49,0,0,1-1.12,1.72A5.72,5.72,0,0,1,47,196.4a5,5,0,0,1-2.07.44H40.84Zm2.79,8.37h.64a3.51,3.51,0,0,0,1.3-.23,2.67,2.67,0,0,0,1-.63,2.54,2.54,0,0,0,.59-.94,3.53,3.53,0,0,0,0-2.4,2.66,2.66,0,0,0-1.57-1.58,3.44,3.44,0,0,0-1.28-.23h-.64Z"/><path class="cls-1" d="M54.67,186.11v10.73H51.88V186.11Z"/><path class="cls-1" d="M62.67,188.86a3.4,3.4,0,0,0-.91-.55,2.39,2.39,0,0,0-.88-.18,1.36,1.36,0,0,0-.88.26.79.79,0,0,0-.35.66.68.68,0,0,0,.17.47,1.52,1.52,0,0,0,.45.32,4.6,4.6,0,0,0,.63.24l.69.21a4.33,4.33,0,0,1,2,1.22,3,3,0,0,1,.63,2,3.82,3.82,0,0,1-.28,1.5,3,3,0,0,1-.81,1.14,3.56,3.56,0,0,1-1.31.74,5.27,5.27,0,0,1-1.75.27,6.48,6.48,0,0,1-3.77-1.21l1.19-2.25a4.83,4.83,0,0,0,1.24.82,3,3,0,0,0,1.21.27,1.47,1.47,0,0,0,1-.31,1,1,0,0,0,.33-.71.93.93,0,0,0-.09-.42.85.85,0,0,0-.28-.33,2.09,2.09,0,0,0-.52-.27c-.21-.09-.47-.18-.77-.29a11,11,0,0,1-1.06-.38,3.29,3.29,0,0,1-.93-.54,2.54,2.54,0,0,1-.65-.86,3,3,0,0,1-.25-1.32,3.78,3.78,0,0,1,.26-1.45,3.27,3.27,0,0,1,.74-1.11,3.43,3.43,0,0,1,1.17-.71,4.4,4.4,0,0,1,1.54-.26,6.67,6.67,0,0,1,1.67.22,7.34,7.34,0,0,1,1.66.65Z"/><path class="cls-1" d="M70,188.47v8.37H67.18v-8.37H64.89v-2.36h7.37v2.36Z"/><path class="cls-1" d="M82.28,196.84H78.81l-2.66-4.13v4.13H73.36V186.11H77.7a4.36,4.36,0,0,1,1.56.26,3,3,0,0,1,1.1.72,3.11,3.11,0,0,1,.66,1,3.63,3.63,0,0,1,.22,1.28,3.18,3.18,0,0,1-.59,2,2.93,2.93,0,0,1-1.74,1Zm-6.13-5.94h.52a2,2,0,0,0,1.27-.34,1.16,1.16,0,0,0,.44-1,1.17,1.17,0,0,0-.44-1,2,2,0,0,0-1.27-.34h-.52Z"/><path class="cls-1" d="M86.09,186.11v10.73H83.3V186.11Z"/><path class="cls-1" d="M95.93,189.69a3,3,0,0,0-2.4-1.18,2.91,2.91,0,0,0-1.15.23,2.71,2.71,0,0,0-.92.62,2.84,2.84,0,0,0-.61.93,3.25,3.25,0,0,0,0,2.35,3,3,0,0,0,.61.94,3.07,3.07,0,0,0,.92.63,2.86,2.86,0,0,0,1.14.22,3.25,3.25,0,0,0,2.41-1.14v3.31l-.29.1a8.32,8.32,0,0,1-1.19.33,6,6,0,0,1-1.1.11,5.54,5.54,0,0,1-2.13-.42,5.69,5.69,0,0,1-1.79-1.18,6,6,0,0,1-1.25-1.81,5.57,5.57,0,0,1-.47-2.28,5.42,5.42,0,0,1,.47-2.27,5.67,5.67,0,0,1,5.18-3.37,5.86,5.86,0,0,1,1.26.14,7.6,7.6,0,0,1,1.31.42Z"/><path class="cls-1" d="M101.62,188.47v8.37H98.83v-8.37H96.54v-2.36h7.37v2.36Z"/><path class="cls-1" d="M117.61,196.84H109l2.67-2.76q1-1.1,1.65-1.86a12.34,12.34,0,0,0,.89-1.29,3.57,3.57,0,0,0,.36-.85,2.51,2.51,0,0,0,.07-.56,1.55,1.55,0,0,0-.08-.47,1.23,1.23,0,0,0-.23-.4,1.37,1.37,0,0,0-.38-.29,1.21,1.21,0,0,0-.52-.1,1.1,1.1,0,0,0-.89.37,1.36,1.36,0,0,0-.32.92,3.15,3.15,0,0,0,0,.46h-3a4.65,4.65,0,0,1,.3-1.71,3.84,3.84,0,0,1,.87-1.32,3.78,3.78,0,0,1,1.31-.86,4.55,4.55,0,0,1,1.67-.3,4.71,4.71,0,0,1,1.66.29,3.83,3.83,0,0,1,1.32.8,3.64,3.64,0,0,1,.87,1.21,3.87,3.87,0,0,1,.31,1.53,3.59,3.59,0,0,1-.38,1.63,5.64,5.64,0,0,1-1.2,1.53l-1.78,1.67h3.47Z"/><path class="cls-1" d="M118.39,191.46a7.76,7.76,0,0,1,.34-2.33,5.21,5.21,0,0,1,.94-1.78A4.09,4.09,0,0,1,123,185.8a4.15,4.15,0,0,1,1.83.4,4.1,4.1,0,0,1,1.44,1.15,5.37,5.37,0,0,1,.93,1.78,8.15,8.15,0,0,1,0,4.66,5.52,5.52,0,0,1-.93,1.79,4.1,4.1,0,0,1-1.44,1.15,4.16,4.16,0,0,1-1.83.41,4.14,4.14,0,0,1-3.28-1.56,5.35,5.35,0,0,1-.94-1.79A7.76,7.76,0,0,1,118.39,191.46Zm2.76,0a6.33,6.33,0,0,0,.13,1.29,3.73,3.73,0,0,0,.37,1,1.88,1.88,0,0,0,.56.67,1.27,1.27,0,0,0,.74.23,1.29,1.29,0,0,0,.73-.23,1.88,1.88,0,0,0,.56-.67,4.1,4.1,0,0,0,.36-1,6.33,6.33,0,0,0,.13-1.29,6.48,6.48,0,0,0-.13-1.29,4.1,4.1,0,0,0-.36-1,1.8,1.8,0,0,0-.56-.65,1.23,1.23,0,0,0-.73-.24,1.21,1.21,0,0,0-.74.24,1.8,1.8,0,0,0-.56.65,3.73,3.73,0,0,0-.37,1A6.48,6.48,0,0,0,121.15,191.46Z"/><path class="cls-1" d="M136,192.5h1.3v2.13H136v2.21h-2.59v-2.21h-5.18v-1.79l4.1-6.73H136Zm-2.59,0v-4.23l-2.46,4.23Z"/><path class="cls-1" d="M149.26,188.86a3.4,3.4,0,0,0-.91-.55,2.43,2.43,0,0,0-.88-.18,1.4,1.4,0,0,0-.89.26.81.81,0,0,0-.34.66.68.68,0,0,0,.17.47,1.52,1.52,0,0,0,.45.32,4.15,4.15,0,0,0,.63.24l.69.21a4.39,4.39,0,0,1,2,1.22,3,3,0,0,1,.63,2,3.82,3.82,0,0,1-.28,1.5,3,3,0,0,1-.81,1.14,3.56,3.56,0,0,1-1.31.74,5.29,5.29,0,0,1-1.76.27,6.53,6.53,0,0,1-3.77-1.21l1.2-2.25a4.83,4.83,0,0,0,1.24.82,3,3,0,0,0,1.21.27,1.42,1.42,0,0,0,1-.31.95.95,0,0,0,.25-1.13.85.85,0,0,0-.28-.33,2.09,2.09,0,0,0-.52-.27c-.21-.09-.47-.18-.78-.29s-.71-.24-1.06-.38a3.38,3.38,0,0,1-.92-.54,2.7,2.7,0,0,1-.66-.86,3.17,3.17,0,0,1-.25-1.32,3.78,3.78,0,0,1,.27-1.45,3.14,3.14,0,0,1,.74-1.11,3.38,3.38,0,0,1,1.16-.71,4.46,4.46,0,0,1,1.55-.26,6.54,6.54,0,0,1,1.66.22,7.23,7.23,0,0,1,1.67.65Z"/><path class="cls-1" d="M160.15,189.69a3,3,0,0,0-3.56-.95,2.77,2.77,0,0,0-.91.62,2.84,2.84,0,0,0-.61.93,3.07,3.07,0,0,0,.61,3.29,3,3,0,0,0,.92.63,2.86,2.86,0,0,0,1.14.22,3.25,3.25,0,0,0,2.41-1.14v3.31l-.29.1a8.42,8.42,0,0,1-1.2.33,5.84,5.84,0,0,1-1.09.11,5.54,5.54,0,0,1-2.13-.42,5.69,5.69,0,0,1-1.79-1.18,6,6,0,0,1-1.25-1.81,5.57,5.57,0,0,1-.47-2.28,5.42,5.42,0,0,1,.47-2.27,5.5,5.5,0,0,1,1.23-1.78,5.64,5.64,0,0,1,1.81-1.17,5.55,5.55,0,0,1,2.14-.42,5.86,5.86,0,0,1,1.26.14,7.6,7.6,0,0,1,1.31.42Z"/><path class="cls-1" d="M165,190.25h4v-4.14h2.79v10.73H169v-4.43h-4v4.43h-2.79V186.11H165Z"/><path class="cls-1" d="M173.45,191.47a5.64,5.64,0,0,1,.44-2.22,5.46,5.46,0,0,1,1.22-1.8,5.64,5.64,0,0,1,1.87-1.21,6.88,6.88,0,0,1,4.79,0,5.62,5.62,0,0,1,1.89,1.21,5.34,5.34,0,0,1,1.23,1.8,5.85,5.85,0,0,1,0,4.45,5.34,5.34,0,0,1-1.23,1.8,5.76,5.76,0,0,1-1.89,1.2,6.74,6.74,0,0,1-4.79,0,5.77,5.77,0,0,1-1.87-1.2,5.46,5.46,0,0,1-1.22-1.8A5.69,5.69,0,0,1,173.45,191.47Zm2.92,0a2.93,2.93,0,0,0,1.85,2.74,3.07,3.07,0,0,0,1.16.22,3,3,0,0,0,1.16-.22,2.83,2.83,0,0,0,1-.62,2.75,2.75,0,0,0,.66-.94,2.86,2.86,0,0,0,.24-1.18,2.9,2.9,0,0,0-.24-1.18,3,3,0,0,0-.66-.94,3.16,3.16,0,0,0-1-.62,3.19,3.19,0,0,0-1.16-.22,3.27,3.27,0,0,0-1.16.22,3.23,3.23,0,0,0-1,.62,3.1,3.1,0,0,0-.65.94A2.9,2.9,0,0,0,176.37,191.47Z"/><path class="cls-1" d="M186.47,191.47a5.64,5.64,0,0,1,.44-2.22,5.46,5.46,0,0,1,1.22-1.8,5.58,5.58,0,0,1,1.88-1.21,6.86,6.86,0,0,1,4.78,0,5.53,5.53,0,0,1,1.89,1.21,5.34,5.34,0,0,1,1.23,1.8,5.85,5.85,0,0,1,0,4.45,5.34,5.34,0,0,1-1.23,1.8,5.65,5.65,0,0,1-1.89,1.2,6.71,6.71,0,0,1-4.78,0,5.71,5.71,0,0,1-1.88-1.2,5.46,5.46,0,0,1-1.22-1.8A5.69,5.69,0,0,1,186.47,191.47Zm2.92,0a2.93,2.93,0,0,0,1.85,2.74,3.07,3.07,0,0,0,1.16.22,3,3,0,0,0,1.16-.22,2.83,2.83,0,0,0,1-.62,2.75,2.75,0,0,0,.66-.94,2.87,2.87,0,0,0,.25-1.18,2.9,2.9,0,0,0-.25-1.18,3,3,0,0,0-.66-.94,3.16,3.16,0,0,0-1-.62,3.19,3.19,0,0,0-1.16-.22,3.27,3.27,0,0,0-1.16.22,3.23,3.23,0,0,0-1,.62,3.1,3.1,0,0,0-.65.94A2.9,2.9,0,0,0,189.39,191.47Z"/><path class="cls-1" d="M202.76,186.11v8.37h3.35v2.36H200V186.11Z"/><path class="cls-1" d="M212.1,186.11h4.15a3.21,3.21,0,0,1,2.25.71,2.66,2.66,0,0,1,.77,2.05,2.8,2.8,0,0,1-.29,1.34,2.49,2.49,0,0,1-.89.91,3.14,3.14,0,0,1,1,.35,2.25,2.25,0,0,1,.68.57,2.41,2.41,0,0,1,.38.77,3.84,3.84,0,0,1,.11.91,3.34,3.34,0,0,1-.26,1.34,2.79,2.79,0,0,1-.74,1,3.12,3.12,0,0,1-1.16.6,5.63,5.63,0,0,1-1.54.2H212.1Zm2.79,4.21h.51c.87,0,1.31-.35,1.31-1s-.44-1-1.31-1h-.51Zm0,4.36h.61a3.14,3.14,0,0,0,1.51-.27,1,1,0,0,0,.45-.87.94.94,0,0,0-.45-.87,3.14,3.14,0,0,0-1.51-.27h-.61Z"/><path class="cls-1" d="M221.23,191.47a5.54,5.54,0,0,1,1.67-4,5.44,5.44,0,0,1,1.87-1.21,6.88,6.88,0,0,1,4.79,0,5.48,5.48,0,0,1,1.88,1.21,5.34,5.34,0,0,1,1.23,1.8,5.73,5.73,0,0,1,0,4.45,5.34,5.34,0,0,1-1.23,1.8,5.61,5.61,0,0,1-1.88,1.2,6.74,6.74,0,0,1-4.79,0,5.57,5.57,0,0,1-1.87-1.2,5.54,5.54,0,0,1-1.67-4Zm2.92,0a2.86,2.86,0,0,0,.24,1.18,2.75,2.75,0,0,0,.66.94,2.69,2.69,0,0,0,1,.62,3,3,0,0,0,1.16.22,3.07,3.07,0,0,0,1.16-.22,3.06,3.06,0,0,0,1.63-1.56,2.86,2.86,0,0,0,.24-1.18,2.9,2.9,0,0,0-.24-1.18,3,3,0,0,0-.67-.94,3.11,3.11,0,0,0-1-.62,3.27,3.27,0,0,0-1.16-.22,3.19,3.19,0,0,0-1.16.22,3,3,0,0,0-1,.62,3,3,0,0,0-.66.94A2.9,2.9,0,0,0,224.15,191.47Z"/><path class="cls-1" d="M240.9,195h-4l-.64,1.87h-3l4.08-10.73h3.05l4.08,10.73h-3Zm-.74-2.12-1.25-3.57-1.26,3.57Z"/><path class="cls-1" d="M254.52,196.84H251l-2.66-4.13v4.13h-2.79V186.11h4.35a4.4,4.4,0,0,1,1.56.26,3,3,0,0,1,1.76,1.77,3.87,3.87,0,0,1,.22,1.28,3.18,3.18,0,0,1-.59,2,3,3,0,0,1-1.75,1Zm-6.14-5.94h.53a2,2,0,0,0,1.27-.34,1.16,1.16,0,0,0,.44-1,1.17,1.17,0,0,0-.44-1,2,2,0,0,0-1.27-.34h-.53Z"/><path class="cls-1" d="M255.54,186.11h4.13a4.9,4.9,0,0,1,2.05.44,5.69,5.69,0,0,1,1.68,1.17,5.37,5.37,0,0,1,1.13,1.71,5.1,5.1,0,0,1,.42,2,5.22,5.22,0,0,1-.41,2,5.49,5.49,0,0,1-1.12,1.72,5.72,5.72,0,0,1-1.68,1.18,5,5,0,0,1-2.07.44h-4.13Zm2.79,8.37H259a3.54,3.54,0,0,0,1.3-.23,2.67,2.67,0,0,0,1-.63,2.54,2.54,0,0,0,.59-.94,3.53,3.53,0,0,0,0-2.4,3,3,0,0,0-.61-1,2.79,2.79,0,0,0-1-.62,3.47,3.47,0,0,0-1.28-.23h-.64Z"/><line class="cls-3" x1="22.8" y1="174.93" x2="264.49" y2="174.93"/><circle class="cls-1" cx="22.91" cy="174.93" r="1.69"/><circle class="cls-1" cx="263.96" cy="174.93" r="1.69"/><path class="cls-2" d="M179.22,14.49h-12.3L157.41,40l-9.58-25.49h-12.3l-8.11,47.8,12,3.43,4.46-30.94,8.89,22.81,9.59-2.37.13-.11,8.34-20.33,2,13.62a3.38,3.38,0,0,1,1-.32,3.62,3.62,0,0,1,2.56.54l8.54-.17Z"/><path class="cls-4" d="M195.8,41.53l-.75-.57-6.91,9.17a1.18,1.18,0,0,0-.62-.09,1.22,1.22,0,0,0-1,.88l-11.05.21a1.18,1.18,0,0,0-2.21.52l-7.67,5.09a1.26,1.26,0,0,0-.77-.15,1.2,1.2,0,0,0-.94.83l-12.4,3.06a1.19,1.19,0,0,0-1.23-.6,1.2,1.2,0,0,0-1,1.31l-9.93,4.14a1.17,1.17,0,0,0-1-.29,1.2,1.2,0,0,0-1,.91l-3.2.63.37.88,3-.58a1.22,1.22,0,0,0,1.21.54,1.19,1.19,0,0,0,1-1.25l10-4.15a1.23,1.23,0,0,0,.92.24,1.21,1.21,0,0,0,1-.84L164,58.36a1.2,1.2,0,0,0,2.23-.77s0-.07,0-.1l7.43-4.93a1.17,1.17,0,0,0,1,.36,1.2,1.2,0,0,0,1-.85l11.06-.22A1.2,1.2,0,0,0,188.9,51a1,1,0,0,0-.09-.24Z"/><path class="cls-1" d="M142.23,63.71c-3.54,0-5.34-1.88-7.47-5.19L130,51.13a16.31,16.31,0,0,0,8.5-14.79c0-10.46-7.32-15.49-20.76-15.49h-6.85c-12.58,0-14.31,0-14.31,7.24V65.41h14.31V57.58h6.85L121,64c3.7,7,7,8.26,12.27,8.26,5.58,0,9.91-2.44,9.91-6.77V63.71Zm-27.6-17.22h-3.78V32.33h3.78c5.27,0,9.36,1,9.36,6.3C124,43.5,120.29,46.49,114.63,46.49Z"/><polygon class="cls-1" points="191.95 43.15 195.61 40.88 194.83 45.12 195.85 45.82 197.19 38.57 190.93 42.45 191.95 43.15"/></svg>