<svg id="Layer_1" data-name="Layer 1" xmlns="http://www.w3.org/2000/svg" viewBox="0 0 288 216"><defs><style>.cls-1,.cls-4{fill:#fff;}.cls-2,.cls-3{fill:#ffb71b;}.cls-2{stroke:#ffb71b;stroke-width:2px;}.cls-2,.cls-4{stroke-miterlimit:10;}.cls-4{stroke:#fff;stroke-width:0.75px;}</style></defs><path class="cls-1" d="M56.55,107.35l4.52,7c2,3.11,3.7,4.89,7,4.89H69v1.7c0,4.07-4.07,6.37-9.33,6.37-5,0-8.07-1.18-11.56-7.78L45,113.43H38.55v13.11H25.06V85.65c0-6.82,1.63-6.82,13.49-6.82H45c12.67,0,19.56,4.74,19.56,14.6A15.36,15.36,0,0,1,56.55,107.35ZM42.1,89.65H38.55V103H42.1c5.34,0,8.82-2.81,8.82-7.41C50.92,90.54,47.07,89.65,42.1,89.65Z"/><path class="cls-1" d="M77.29,86.54c-5.63,0-7.63-2.3-7.63-6.74s2-6.89,7.63-6.89c5.41,0,7.63,2.44,7.63,6.89S82.7,86.54,77.29,86.54Zm-6.66,40V96.76c0-6.82,1.55-6.82,12.74-6.82v36.6Z"/><path class="cls-1" d="M120,118.76c0,6.6-6.45,8.52-14.52,8.52-12.15,0-19-7.41-19-20.15,0-10.74,7.63-17.63,19.7-17.63,8.75,0,15.19,3.63,15.19,10.37,0,4.52-3.41,6.08-7.55,6.08h-3.34v-1.41c0-4-1.92-5.48-4.59-5.48-3.71,0-6.22,3.11-6.22,8.07,0,7.78,4.51,10.52,11.33,10.52a24.71,24.71,0,0,0,9-1.55Z"/><path class="cls-1" d="M135.74,105.21l7.12-.6v-.22c-.3-5.26-4.6-6.15-8.75-6.15a24.14,24.14,0,0,0-9.33,2.22V97.35c0-6.07,8.89-7.85,14.74-7.85,8.45,0,15.41,2.59,16.3,14.82l1.26,17.78c.37,4.74-5.41,4.74-13,4.74l-.3-5A15.51,15.51,0,0,1,132,127.28c-7.19,0-10.6-5.55-10.6-11C121.37,110.24,125.15,106.09,135.74,105.21Zm2.08,13.55c3.18,0,5.26-3.63,5.41-7.26l-5.26.67a3.29,3.29,0,0,0-3.11,3.33A3,3,0,0,0,137.82,118.76Z"/><path class="cls-1" d="M160.71,126.54V96.76c0-6.82,1.56-6.82,12.74-6.82V97.2c2.82-5.11,6.37-7.7,10.08-7.7,3.41,0,4.29,2.44,3.55,12.37-8.44-1.85-13.63.22-13.63,11.85v12.82Z"/><path class="cls-1" d="M204.12,89.5a12.66,12.66,0,0,1,9.49,3.7V78.83h12.74V120c0,6.82-1.56,6.82-12.74,6.82v-6.3a15.27,15.27,0,0,1-12.82,6.74c-9.33,0-13.41-7.26-13.41-17.33C187.38,98.91,194.05,89.5,204.12,89.5ZM206,117.13c4.29,0,7.26-4.37,7.26-10.37,0-3.26-1.26-6.89-5.56-6.89-4.67,0-7.11,4.82-7.11,9.56C200.57,113.43,201.9,117.13,206,117.13Z"/><path class="cls-1" d="M248.57,127.28c-11.41,0-19.11-7.85-19.11-19.63,0-11.33,6.89-18.15,19.11-18.15s19.12,6.82,19.12,18.15C267.69,119.43,260,127.28,248.57,127.28Zm0-27.63c-4.66,0-5.92,3.18-5.92,8s1.92,9.26,5.92,9.26,5.93-4.45,5.93-9.26S253.24,99.65,248.57,99.65Z"/><path class="cls-1" d="M24.65,162.91l4.49-26.45h6.8l5.3,14.1,5.26-14.1h6.8l4.49,26.45H51l-2.28-15.23-6.24,15.23H39.69l-5.92-15.23-2.28,15.23Z"/><path class="cls-1" d="M85.36,158.31H75.54L74,162.91H66.63l10.06-26.45H84.2l10.07,26.45H86.94Zm-1.83-5.22-3.08-8.81-3.09,8.81Z"/><path class="cls-1" d="M126.29,162.91h-8.56l-6.56-10.18v10.18H104.3V136.46H115a10.54,10.54,0,0,1,3.86.65,7.23,7.23,0,0,1,4.33,4.37,8.84,8.84,0,0,1,.55,3.15,7.8,7.8,0,0,1-1.46,4.9,7.35,7.35,0,0,1-4.29,2.54Zm-15.12-14.63h1.3a5,5,0,0,0,3.12-.84,3.23,3.23,0,0,0,0-4.84,5,5,0,0,0-3.12-.84h-1.3Z"/><path class="cls-1" d="M146.24,142.28v20.63h-6.87V142.28h-5.65v-5.82h18.17v5.82Z"/><path class="cls-1" d="M168.83,136.46v26.45H162V136.46Z"/><path class="cls-1" d="M181.39,162.91V136.46h6.87L201,152.63V136.46h6.84v26.45H201l-12.7-16.17v16.17Z"/><path class="cls-1" d="M235.4,142.28h-8.17v4.42h7.71v5.82h-7.71v4.56h8.17v5.83H220.35V136.46H235.4Z"/><path class="cls-1" d="M256.65,157.08h11.09v5.83H245.12l12.52-20.63H247.22v-5.82h21.89Z"/><path class="cls-1" d="M27.39,193.46c-.14.89-.23,1.8-.35,3-.16,1.56-.69,2-1.22,2.31a1.65,1.65,0,0,1-.73.21.74.74,0,0,1-.68-.39l-.24-.41c.61-.37.93-.69,1.08-2.12a36.6,36.6,0,0,1,.65-4.6,2.23,2.23,0,0,1,2.3-1.84c.92,0,1.53.37,1.33,1.2l-.08.34a1.63,1.63,0,0,0-.72-.16,1,1,0,0,0-1.05.87,1.62,1.62,0,0,0,0,.19h1.07c.55,0,.52.23.25,1.38Z"/><path class="cls-1" d="M31.22,197.14a2.31,2.31,0,0,1-2.28-2.52,2.94,2.94,0,0,1,3.12-3.24,2.1,2.1,0,0,1,2.37,2.24A3.39,3.39,0,0,1,31.22,197.14Zm.64-4.27c-.84,0-1.11.86-1.11,1.81,0,.58.18.93.64.93.79,0,1.23-1.11,1.23-1.88C32.62,193.13,32.31,192.87,31.86,192.87Z"/><path class="cls-1" d="M34.19,197a45.61,45.61,0,0,1,1.07-4.84c.19-.69.73-.74,1.94-.74-.21.7-.37,1.24-.53,1.87.86-1.75,1.47-1.94,1.9-1.94s.69.5.25,1.92c-1.46-.37-2.55,1.85-2.89,3.61l0,.12Z"/><path class="cls-1" d="M43.57,186.3H47.7a4.75,4.75,0,0,1,2,.44,5.51,5.51,0,0,1,1.68,1.17,5.37,5.37,0,0,1,1.13,1.71,5.1,5.1,0,0,1,.42,2,5.26,5.26,0,0,1-.41,2,5.34,5.34,0,0,1-1.12,1.71,5.57,5.57,0,0,1-1.68,1.19,5,5,0,0,1-2.07.44H43.57Zm2.79,8.36H47a3.49,3.49,0,0,0,1.29-.22,3,3,0,0,0,1-.63,2.58,2.58,0,0,0,.59-.95,3.51,3.51,0,0,0,0-2.39,3,3,0,0,0-.61-1,2.79,2.79,0,0,0-1-.62,3.28,3.28,0,0,0-1.28-.23h-.64Z"/><path class="cls-1" d="M57.4,186.3V197H54.61V186.3Z"/><path class="cls-1" d="M65.4,189a3.35,3.35,0,0,0-.91-.54,2.43,2.43,0,0,0-.88-.18,1.46,1.46,0,0,0-.89.25.82.82,0,0,0-.34.67.68.68,0,0,0,.17.47A1.52,1.52,0,0,0,63,190a4.6,4.6,0,0,0,.63.24l.69.21a4.25,4.25,0,0,1,2,1.22,3,3,0,0,1,.63,2,3.82,3.82,0,0,1-.28,1.5,3.06,3.06,0,0,1-.81,1.14,3.56,3.56,0,0,1-1.31.74,5.34,5.34,0,0,1-1.76.26,6.52,6.52,0,0,1-3.77-1.2l1.2-2.25a4.83,4.83,0,0,0,1.24.82,3,3,0,0,0,1.21.27,1.42,1.42,0,0,0,1-.31.94.94,0,0,0,.34-.71.93.93,0,0,0-.09-.42.85.85,0,0,0-.28-.33,2.48,2.48,0,0,0-.52-.28c-.21-.08-.47-.18-.78-.28s-.71-.24-1.06-.38a3.4,3.4,0,0,1-.92-.55,2.5,2.5,0,0,1-.66-.86,3.1,3.1,0,0,1-.24-1.31,3.75,3.75,0,0,1,.26-1.45,3.14,3.14,0,0,1,.74-1.11,3.3,3.3,0,0,1,1.17-.72,4.4,4.4,0,0,1,1.54-.25,6.54,6.54,0,0,1,1.66.22,7.23,7.23,0,0,1,1.67.65Z"/><path class="cls-1" d="M72.7,188.66V197H69.91v-8.37H67.62V186.3H75v2.36Z"/><path class="cls-1" d="M85,197H81.54l-2.67-4.13V197H76.09V186.3h4.34a4.18,4.18,0,0,1,1.56.26,3,3,0,0,1,1.1.72,3,3,0,0,1,.66,1.05,3.63,3.63,0,0,1,.22,1.28,3.18,3.18,0,0,1-.59,2,3,3,0,0,1-1.74,1Zm-6.14-5.94h.53a2,2,0,0,0,1.27-.34,1.17,1.17,0,0,0,.44-1,1.16,1.16,0,0,0-.44-1,2,2,0,0,0-1.27-.34h-.53Z"/><path class="cls-1" d="M88.82,186.3V197H86V186.3Z"/><path class="cls-1" d="M98.65,189.88a3,3,0,0,0-3.55-.95,2.77,2.77,0,0,0-.91.62,2.84,2.84,0,0,0-.61.93,3,3,0,0,0-.22,1.17,3.06,3.06,0,0,0,.22,1.18,3,3,0,0,0,.61.94,2.93,2.93,0,0,0,.92.62,2.7,2.7,0,0,0,1.14.23,3.22,3.22,0,0,0,2.4-1.14v3.3l-.28.1a7.38,7.38,0,0,1-1.2.34,5.82,5.82,0,0,1-1.09.1A5.54,5.54,0,0,1,94,196.9a5.37,5.37,0,0,1-1.79-1.18,5.92,5.92,0,0,1-1.25-1.8,5.58,5.58,0,0,1-.47-2.29,5.49,5.49,0,0,1,.47-2.27,5.72,5.72,0,0,1,1.23-1.78,5.86,5.86,0,0,1,1.8-1.16,5.64,5.64,0,0,1,2.15-.42,5.86,5.86,0,0,1,1.26.13,7.25,7.25,0,0,1,1.3.42Z"/><path class="cls-1" d="M104.35,188.66V197h-2.79v-8.37H99.27V186.3h7.37v2.36Z"/><path class="cls-1" d="M120.34,197H111.7l2.66-2.76a23.45,23.45,0,0,0,1.65-1.86,9.86,9.86,0,0,0,.89-1.29,3.44,3.44,0,0,0,.37-.85,3.4,3.4,0,0,0,.07-.56,1.5,1.5,0,0,0-.08-.47,1.1,1.1,0,0,0-.24-.4,1.16,1.16,0,0,0-.37-.29,1.21,1.21,0,0,0-.52-.1,1.1,1.1,0,0,0-.89.37,1.36,1.36,0,0,0-.32.92,3.26,3.26,0,0,0,0,.46h-3a4.65,4.65,0,0,1,.3-1.71,4,4,0,0,1,.86-1.33,3.8,3.8,0,0,1,1.32-.85,4.51,4.51,0,0,1,1.67-.3,4.71,4.71,0,0,1,1.66.29,4,4,0,0,1,1.32.79,3.75,3.75,0,0,1,.86,1.22,3.71,3.71,0,0,1,.32,1.53,3.59,3.59,0,0,1-.38,1.63,5.64,5.64,0,0,1-1.2,1.53l-1.78,1.66h3.47Z"/><path class="cls-1" d="M121.12,191.65a7.41,7.41,0,0,1,.34-2.33,5.26,5.26,0,0,1,.94-1.79,4.25,4.25,0,0,1,1.43-1.14,4.23,4.23,0,0,1,5.12,1.14,5.42,5.42,0,0,1,.93,1.79,8.12,8.12,0,0,1,0,4.65,5.48,5.48,0,0,1-.93,1.8,4.22,4.22,0,0,1-1.44,1.15,4.43,4.43,0,0,1-3.68,0,4.28,4.28,0,0,1-1.43-1.15,5.31,5.31,0,0,1-.94-1.8A7.34,7.34,0,0,1,121.12,191.65Zm2.76,0a6.4,6.4,0,0,0,.13,1.29,4.1,4.1,0,0,0,.36,1,1.87,1.87,0,0,0,.57.66,1.19,1.19,0,0,0,.74.24,1.23,1.23,0,0,0,.73-.24A1.76,1.76,0,0,0,127,194a4.1,4.1,0,0,0,.36-1,6.47,6.47,0,0,0,0-2.58,4.1,4.1,0,0,0-.36-1,1.93,1.93,0,0,0-.56-.66,1.29,1.29,0,0,0-.73-.23,1.25,1.25,0,0,0-.74.23,2.07,2.07,0,0,0-.57.66,4.1,4.1,0,0,0-.36,1A6.4,6.4,0,0,0,123.88,191.65Z"/><path class="cls-1" d="M138.71,192.69H140v2.13h-1.3V197h-2.59v-2.21h-5.18V193l4.1-6.73h3.67Zm-2.59,0v-4.23l-2.46,4.23Z"/><path class="cls-1" d="M152,189a3.51,3.51,0,0,0-.91-.54,2.44,2.44,0,0,0-.89-.18,1.43,1.43,0,0,0-.88.25.8.8,0,0,0-.34.67.68.68,0,0,0,.17.47,1.4,1.4,0,0,0,.45.32,3.78,3.78,0,0,0,.63.24l.69.21a4.22,4.22,0,0,1,2,1.22,3,3,0,0,1,.64,2,3.82,3.82,0,0,1-.28,1.5,3.06,3.06,0,0,1-.81,1.14,3.64,3.64,0,0,1-1.31.74,5.34,5.34,0,0,1-1.76.26,6.52,6.52,0,0,1-3.77-1.2l1.2-2.25a4.83,4.83,0,0,0,1.24.82,3,3,0,0,0,1.21.27,1.42,1.42,0,0,0,1-.31.94.94,0,0,0,.34-.71.93.93,0,0,0-.09-.42,1,1,0,0,0-.28-.33,2.76,2.76,0,0,0-.52-.28c-.22-.08-.47-.18-.78-.28s-.71-.24-1.06-.38a3.4,3.4,0,0,1-.92-.55,2.5,2.5,0,0,1-.66-.86,3.09,3.09,0,0,1-.25-1.31,3.75,3.75,0,0,1,.27-1.45,3.14,3.14,0,0,1,.74-1.11,3.17,3.17,0,0,1,1.16-.72,4.46,4.46,0,0,1,1.55-.25,6.6,6.6,0,0,1,1.66.22,7.23,7.23,0,0,1,1.67.65Z"/><path class="cls-1" d="M162.87,189.88a3,3,0,0,0-3.55-.95,2.93,2.93,0,0,0-.92.62,3,3,0,0,0-.6.93,3,3,0,0,0-.22,1.17,3.06,3.06,0,0,0,.22,1.18,3,3,0,0,0,.61.94,2.93,2.93,0,0,0,.92.62,2.7,2.7,0,0,0,1.14.23,3.22,3.22,0,0,0,2.4-1.14v3.3l-.28.1a7.38,7.38,0,0,1-1.2.34,5.82,5.82,0,0,1-1.09.1,5.54,5.54,0,0,1-2.13-.42,5.27,5.27,0,0,1-1.79-1.18,5.75,5.75,0,0,1-1.25-1.8,5.58,5.58,0,0,1-.47-2.29,5.49,5.49,0,0,1,.47-2.27,5.72,5.72,0,0,1,1.23-1.78,5.86,5.86,0,0,1,1.8-1.16,5.64,5.64,0,0,1,2.15-.42,5.86,5.86,0,0,1,1.26.13,7.51,7.51,0,0,1,1.3.42Z"/><path class="cls-1" d="M167.74,190.44h4V186.3h2.79V197h-2.79V192.6h-4V197H165V186.3h2.79Z"/><path class="cls-1" d="M176.18,191.66a5.51,5.51,0,0,1,.44-2.23,5.47,5.47,0,0,1,3.09-3,6.88,6.88,0,0,1,4.79,0,5.76,5.76,0,0,1,1.89,1.2,5.88,5.88,0,0,1,1.23,1.8,5.65,5.65,0,0,1-1.23,6.26,5.76,5.76,0,0,1-1.89,1.2,6.88,6.88,0,0,1-4.79,0,5.67,5.67,0,0,1-1.87-1.2,5.58,5.58,0,0,1-1.66-4Zm2.92,0a2.86,2.86,0,0,0,.24,1.18,3,3,0,0,0,.65.94,3,3,0,0,0,2.12.84,3.08,3.08,0,0,0,2.13-.84,3,3,0,0,0,.66-3.3,3,3,0,0,0-.66-.94,3.16,3.16,0,0,0-1-.62,3.19,3.19,0,0,0-1.16-.22,3,3,0,0,0-2.12.84,3.1,3.1,0,0,0-.65.94A2.86,2.86,0,0,0,179.1,191.66Z"/><path class="cls-1" d="M189.2,191.66a5.51,5.51,0,0,1,3.53-5.23,6.88,6.88,0,0,1,4.79,0,5.76,5.76,0,0,1,1.89,1.2,5.55,5.55,0,0,1,1.23,1.8,5.87,5.87,0,0,1,0,4.46,5.34,5.34,0,0,1-1.23,1.8,5.76,5.76,0,0,1-1.89,1.2,6.88,6.88,0,0,1-4.79,0,5.67,5.67,0,0,1-1.87-1.2,5.46,5.46,0,0,1-1.22-1.8A5.69,5.69,0,0,1,189.2,191.66Zm2.92,0a2.86,2.86,0,0,0,.24,1.18,3,3,0,0,0,.65.94,3,3,0,0,0,2.12.84,3.08,3.08,0,0,0,2.13-.84,3,3,0,0,0,.66-3.3,3,3,0,0,0-.66-.94,3.16,3.16,0,0,0-1-.62,3.19,3.19,0,0,0-1.16-.22,3,3,0,0,0-2.12.84,3.1,3.1,0,0,0-.65.94A2.86,2.86,0,0,0,192.12,191.66Z"/><path class="cls-1" d="M205.49,186.3v8.36h3.35V197H202.7V186.3Z"/><path class="cls-1" d="M214.83,186.3H219a3.17,3.17,0,0,1,2.25.71,2.66,2.66,0,0,1,.77,2.05,2.8,2.8,0,0,1-.29,1.34,2.49,2.49,0,0,1-.89.91,3.33,3.33,0,0,1,1,.34,2.32,2.32,0,0,1,.69.58,2.12,2.12,0,0,1,.37.77,3.34,3.34,0,0,1,.12.91,3.18,3.18,0,0,1-.27,1.34,2.74,2.74,0,0,1-.73,1,3.45,3.45,0,0,1-1.16.6,5.63,5.63,0,0,1-1.54.2h-4.48Zm2.78,4.21h.52c.87,0,1.31-.35,1.31-1s-.44-1-1.31-1h-.52Zm0,4.35h.62a3.14,3.14,0,0,0,1.51-.27,1.06,1.06,0,0,0,0-1.73,3.14,3.14,0,0,0-1.51-.27h-.62Z"/><path class="cls-1" d="M224,191.66a5.69,5.69,0,0,1,.44-2.23,5.88,5.88,0,0,1,1.23-1.8,5.57,5.57,0,0,1,1.87-1.2,6.88,6.88,0,0,1,4.79,0,5.61,5.61,0,0,1,1.88,1.2,5.75,5.75,0,0,1,1.23,6.26,5.34,5.34,0,0,1-1.23,1.8,5.61,5.61,0,0,1-1.88,1.2,6.88,6.88,0,0,1-4.79,0,5.57,5.57,0,0,1-1.87-1.2,5.54,5.54,0,0,1-1.67-4Zm2.92,0a3,3,0,0,0,1.86,2.74,3,3,0,0,0,1.16.22,3,3,0,0,0,2.79-1.78,3,3,0,0,0,0-2.36,3.16,3.16,0,0,0-.67-.94,3.23,3.23,0,0,0-1-.62,3.27,3.27,0,0,0-1.16-.22,3.19,3.19,0,0,0-1.16.22,3,3,0,0,0-1,.62,3,3,0,0,0-.66.94A2.86,2.86,0,0,0,226.88,191.66Z"/><path class="cls-1" d="M243.63,195.16h-4L239,197h-3l4.08-10.73h3L247.24,197h-3Zm-.74-2.12-1.25-3.57L240.38,193Z"/><path class="cls-1" d="M257.25,197h-3.48l-2.66-4.13V197h-2.79V186.3h4.34a4.2,4.2,0,0,1,1.57.26,3.05,3.05,0,0,1,1.1.72,3,3,0,0,1,.66,1.05,3.87,3.87,0,0,1,.22,1.28,3.18,3.18,0,0,1-.59,2,3,3,0,0,1-1.75,1Zm-6.14-5.94h.53a2,2,0,0,0,1.26-.34,1.15,1.15,0,0,0,.45-1,1.14,1.14,0,0,0-.45-1,2,2,0,0,0-1.26-.34h-.53Z"/><path class="cls-1" d="M258.27,186.3h4.13a4.75,4.75,0,0,1,2.05.44,5.51,5.51,0,0,1,1.68,1.17,5.37,5.37,0,0,1,1.13,1.71,5.1,5.1,0,0,1,.42,2,5.26,5.26,0,0,1-.41,2,5.34,5.34,0,0,1-1.12,1.71,5.57,5.57,0,0,1-1.68,1.19,5,5,0,0,1-2.07.44h-4.13Zm2.79,8.36h.64a3.49,3.49,0,0,0,1.29-.22,2.81,2.81,0,0,0,1-.63,2.61,2.61,0,0,0,.6-.95,3.51,3.51,0,0,0,0-2.39,3,3,0,0,0-.61-1,2.79,2.79,0,0,0-1-.62,3.28,3.28,0,0,0-1.28-.23h-.64Z"/><line class="cls-2" x1="25.53" y1="175.12" x2="267.22" y2="175.12"/><circle class="cls-3" cx="25.64" cy="175.12" r="1.69"/><circle class="cls-3" cx="266.69" cy="175.12" r="1.69"/><path class="cls-3" d="M181.94,14.68H169.65l-9.51,25.48-9.58-25.48h-12.3l-8.11,47.8,12,3.43L146.63,35l8.88,22.8,9.6-2.36.13-.11L173.58,35l2,13.62a3.38,3.38,0,0,1,1-.32,3.62,3.62,0,0,1,2.55.53l8.55-.16Z"/><path class="cls-4" d="M198.53,41.71l-.75-.56-6.91,9.17a1.09,1.09,0,0,0-.62-.09,1.22,1.22,0,0,0-1,.88l-11.05.21a1.18,1.18,0,0,0-2.21.52l-7.67,5.09a1.26,1.26,0,0,0-.77-.15,1.21,1.21,0,0,0-1,.83l-12.39,3a1.18,1.18,0,0,0-1.23-.59,1.2,1.2,0,0,0-1,1.31l-9.94,4.14a1.15,1.15,0,0,0-1-.29,1.2,1.2,0,0,0-1,.91l-3.2.63.37.88,3-.59a1.22,1.22,0,0,0,1.21.55,1.2,1.2,0,0,0,1-1.25l10-4.15a1.19,1.19,0,0,0,1.87-.61l12.39-3.05a1.2,1.2,0,0,0,2.23-.77,1,1,0,0,0,0-.1l7.43-4.93a1.16,1.16,0,0,0,1,.36,1.17,1.17,0,0,0,1-.85L189.41,52a1.2,1.2,0,0,0,2.22-.81,1.7,1.7,0,0,0-.09-.24Z"/><path class="cls-1" d="M145,63.9c-3.54,0-5.35-1.89-7.47-5.19l-4.8-7.39a16.31,16.31,0,0,0,8.5-14.79c0-10.46-7.32-15.49-20.77-15.49h-6.84C101,21,99.27,21,99.27,28.27V65.59h14.31V57.77h6.84l3.31,6.45c3.69,7,7,8.25,12.27,8.25,5.58,0,9.91-2.43,9.91-6.76V63.9Zm-27.6-17.22h-3.78V32.52h3.78c5.27,0,9.36.95,9.36,6.29C126.72,43.69,123,46.68,117.36,46.68Z"/><polygon class="cls-1" points="194.68 43.34 198.34 41.07 197.56 45.31 198.58 46.01 199.92 38.76 193.65 42.64 194.68 43.34"/></svg>